<?xml version="1.0" encoding="iso-8859-1"?>
<!-- Generator: Adobe Illustrator 19.0.0, SVG Export Plug-In . SVG Version: 6.00 Build 0)  -->
<svg version="1.1" id="Layer_1" xmlns="http://www.w3.org/2000/svg" xmlns:xlink="http://www.w3.org/1999/xlink" x="0px" y="0px"
	 viewBox="0 0 512 512" style="enable-background:new 0 0 512 512;" xml:space="preserve">
<path style="fill:#F20013;" d="M485.499,463.822c0,6.93-5.619,12.549-12.549,12.549H39.05c-6.93,0-12.549-5.619-12.549-12.549
	V217.332h458.996v246.489H485.499z"/>
<g>
	<path style="fill:#B7000A;" d="M256,476.371h216.95c6.93,0,12.549-5.619,12.549-12.549V217.332H256V476.371z"/>
	<path style="fill:#B7000A;" d="M378.702,202.952H133.298V80.086c0-24.515,19.943-44.457,44.457-44.457h156.489
		c24.514,0,44.457,19.943,44.457,44.457V202.952z M179.033,157.217h153.935V81.363H179.033V157.217z"/>
</g>
<g>
	<polygon style="fill:#7F1B12;" points="332.967,94.751 332.967,157.217 179.033,157.217 179.033,94.751 133.298,94.751 
		133.298,202.952 378.702,202.952 378.702,94.751 	"/>
	<path style="fill:#7F1B12;" d="M334.245,35.629H256v45.734h76.967v75.854H256v45.734h122.702V80.086
		C378.702,55.573,358.758,35.629,334.245,35.629z"/>
</g>
<rect x="26.501" y="217.338" style="fill:#B7000A;" width="458.993" height="33.587"/>
<rect x="256" y="217.338" style="fill:#7F1B12;" width="229.496" height="33.587"/>
<path style="fill:#CECED1;" d="M179.777,285.062c0,4.45-3.607,8.056-8.056,8.056h-38.174c-4.45,0-8.056-3.606-8.056-8.056v-67.73
	h54.286v67.73H179.777z"/>
<g>
	<path style="fill:#AEACB3;" d="M386.51,285.062c0,4.45-3.606,8.056-8.056,8.056H340.28c-4.45,0-8.056-3.606-8.056-8.056v-67.73
		h54.285V285.062z"/>
	<rect x="125.49" y="217.338" style="fill:#AEACB3;" width="54.286" height="33.587"/>
</g>
<rect x="332.22" y="217.338" style="fill:#555558;" width="54.286" height="33.587"/>
<path style="fill:#FF4B00;" d="M512,173.815c0-29.804-24.161-53.965-53.965-53.965H53.965C24.161,119.849,0,144.01,0,173.815v31.647
	c0,6.93,5.619,12.549,12.549,12.549h486.902c6.93,0,12.549-5.619,12.549-12.549V173.815z"/>
<path style="fill:#F20013;" d="M458.035,119.849H256v98.161h243.451c6.93,0,12.549-5.619,12.549-12.549v-31.647
	C512,144.01,487.839,119.849,458.035,119.849z"/>
<g>
</g>
<g>
</g>
<g>
</g>
<g>
</g>
<g>
</g>
<g>
</g>
<g>
</g>
<g>
</g>
<g>
</g>
<g>
</g>
<g>
</g>
<g>
</g>
<g>
</g>
<g>
</g>
<g>
</g>
</svg>
